<svg width="36" height="37" class="test1" viewBox="0 0 36 37" fill="white" xmlns="http://www.w3.org/2000/svg">
<path d="M18.0041 24.975C16.2864 24.975 14.639 24.2928 13.4243 23.0785C12.2097 21.8642 11.5274 20.2173 11.5274 18.5C11.5274 16.7827 12.2097 15.1358 13.4243 13.9215C14.639 12.7072 16.2864 12.025 18.0041 12.025C19.7218 12.025 21.3692 12.7072 22.5838 13.9215C23.7985 15.1358 24.4808 16.7827 24.4808 18.5C24.4808 20.2173 23.7985 21.8642 22.5838 23.0785C21.3692 24.2928 19.7218 24.975 18.0041 24.975ZM31.7533 20.2945C31.8273 19.7025 31.8828 19.1105 31.8828 18.5C31.8828 17.8895 31.8273 17.279 31.7533 16.65L35.6578 13.6345C36.0094 13.357 36.1019 12.8575 35.8799 12.4505L32.1789 6.0495C31.9568 5.6425 31.4572 5.476 31.0501 5.6425L26.4423 7.4925C25.4801 6.771 24.4808 6.142 23.315 5.6795L22.6303 0.777003C22.5927 0.559105 22.4792 0.361543 22.3099 0.219324C22.1405 0.077104 21.9263 -0.000591583 21.7051 3.39192e-06H14.3031C13.8405 3.39192e-06 13.4519 0.333004 13.3778 0.777003L12.6932 5.6795C11.5274 6.142 10.5281 6.771 9.56583 7.4925L4.95809 5.6425C4.55098 5.476 4.05135 5.6425 3.82929 6.0495L0.128298 12.4505C-0.112267 12.8575 -0.00123669 13.357 0.350357 13.6345L4.2549 16.65C4.18088 17.279 4.12537 17.8895 4.12537 18.5C4.12537 19.1105 4.18088 19.7025 4.2549 20.2945L0.350357 23.3655C-0.00123669 23.643 -0.112267 24.1425 0.128298 24.5495L3.82929 30.9505C4.05135 31.3575 4.55098 31.5055 4.95809 31.3575L9.56583 29.489C10.5281 30.229 11.5274 30.858 12.6932 31.3205L13.3778 36.223C13.4519 36.667 13.8405 37 14.3031 37H21.7051C22.1677 37 22.5563 36.667 22.6303 36.223L23.315 31.3205C24.4808 30.8395 25.4801 30.229 26.4423 29.489L31.0501 31.3575C31.4572 31.5055 31.9568 31.3575 32.1789 30.9505L35.8799 24.5495C36.1019 24.1425 36.0094 23.643 35.6578 23.3655L31.7533 20.2945Z"/>
</svg>
