<svg width="36" height="35" viewBox="0 0 36 35" fill="none" xmlns="http://www.w3.org/2000/svg">
<path d="M34.1053 29.1667V31.1111C34.1053 32.1425 33.706 33.1317 32.9954 33.861C32.2847 34.5903 31.3208 35 30.3158 35H3.78947C2.78444 35 1.82058 34.5903 1.10991 33.861C0.399247 33.1317 0 32.1425 0 31.1111V3.88889C0 2.85749 0.399247 1.86834 1.10991 1.13903C1.82058 0.409721 2.78444 0 3.78947 0H30.3158C31.3208 0 32.2847 0.409721 32.9954 1.13903C33.706 1.86834 34.1053 2.85749 34.1053 3.88889V5.83333H17.0526C16.0476 5.83333 15.0837 6.24305 14.3731 6.97236C13.6624 7.70167 13.2632 8.69082 13.2632 9.72222V25.2778C13.2632 26.3092 13.6624 27.2983 14.3731 28.0276C15.0837 28.7569 16.0476 29.1667 17.0526 29.1667H34.1053ZM17.0526 25.2778H36V9.72222H17.0526V25.2778ZM24.6316 20.4167C23.8778 20.4167 23.1549 20.1094 22.6219 19.5624C22.0889 19.0154 21.7895 18.2735 21.7895 17.5C21.7895 16.7265 22.0889 15.9846 22.6219 15.4376C23.1549 14.8906 23.8778 14.5833 24.6316 14.5833C25.3854 14.5833 26.1083 14.8906 26.6413 15.4376C27.1742 15.9846 27.4737 16.7265 27.4737 17.5C27.4737 18.2735 27.1742 19.0154 26.6413 19.5624C26.1083 20.1094 25.3854 20.4167 24.6316 20.4167Z" fill="white"/>
</svg>
