<svg width="42" height="43" viewBox="0 0 42 43" fill="none" xmlns="http://www.w3.org/2000/svg">
<rect y="7" width="36" height="36" rx="4" fill="white"/>
<path d="M25.1998 16.9004H10.7998C10.3224 16.9004 9.86453 17.09 9.52696 17.4276C9.1894 17.7652 8.99976 18.223 8.99976 18.7004V34.9004L12.5998 31.3004H25.1998C25.6771 31.3004 26.135 31.1107 26.4725 30.7732C26.8101 30.4356 26.9998 29.9778 26.9998 29.5004V18.7004C26.9998 18.223 26.8101 17.7652 26.4725 17.4276C26.135 17.09 25.6771 16.9004 25.1998 16.9004ZM12.5998 23.2004H23.3998V25.0004H12.5998V23.2004ZM19.7998 27.7004H12.5998V25.9004H19.7998V27.7004ZM23.3998 22.3004H12.5998V20.5004H23.3998" fill="black"/>
<rect x="24" width="17.4545" height="17.4545" rx="8.72727" fill="#FAC704"/>
<path d="M31.4354 7.27832H32.4198C32.8026 7.27832 33.1193 7.21224 33.37 7.08008C33.6252 6.94792 33.8143 6.76562 33.9374 6.5332C34.0604 6.30078 34.1219 6.03418 34.1219 5.7334C34.1219 5.41895 34.065 5.15007 33.951 4.92676C33.8417 4.69889 33.673 4.52344 33.4452 4.40039C33.2219 4.27734 32.937 4.21582 32.5907 4.21582C32.299 4.21582 32.0347 4.27507 31.7977 4.39355C31.5653 4.50749 31.3807 4.67155 31.244 4.88574C31.1073 5.09538 31.0389 5.34603 31.0389 5.6377H29.3846C29.3846 5.10905 29.5236 4.63965 29.8016 4.22949C30.0796 3.81934 30.4579 3.49805 30.9364 3.26562C31.4195 3.02865 31.9618 2.91016 32.5633 2.91016C33.2059 2.91016 33.7665 3.01725 34.245 3.23145C34.7281 3.44108 35.104 3.75553 35.3729 4.1748C35.6418 4.59408 35.7762 5.11361 35.7762 5.7334C35.7762 6.01595 35.7102 6.30306 35.578 6.59473C35.4458 6.88639 35.2499 7.15299 34.9901 7.39453C34.7303 7.63151 34.4068 7.8252 34.0194 7.97559C33.632 8.12142 33.1831 8.19434 32.6727 8.19434H31.4354V7.27832ZM31.4354 8.56348V7.66113H32.6727C33.2561 7.66113 33.7528 7.72949 34.163 7.86621C34.5777 8.00293 34.9149 8.19206 35.1747 8.43359C35.4344 8.67057 35.6236 8.94173 35.7421 9.24707C35.8651 9.55241 35.9266 9.87598 35.9266 10.2178C35.9266 10.6826 35.8423 11.0973 35.6737 11.4619C35.5096 11.8219 35.2749 12.1273 34.9696 12.3779C34.6643 12.6286 34.3065 12.8177 33.8964 12.9453C33.4908 13.0729 33.0487 13.1367 32.5702 13.1367C32.1418 13.1367 31.7316 13.0775 31.3397 12.959C30.9478 12.8405 30.5969 12.665 30.287 12.4326C29.9771 12.1956 29.731 11.9017 29.5487 11.5508C29.371 11.1953 29.2821 10.7852 29.2821 10.3203H30.9296C30.9296 10.6165 30.9979 10.8786 31.1346 11.1064C31.2759 11.3298 31.4719 11.5052 31.7225 11.6328C31.9777 11.7604 32.2694 11.8242 32.5975 11.8242C32.9439 11.8242 33.2424 11.7627 33.493 11.6396C33.7437 11.5166 33.9351 11.3343 34.0672 11.0928C34.204 10.8512 34.2723 10.5596 34.2723 10.2178C34.2723 9.8304 34.1971 9.51595 34.0467 9.27441C33.8964 9.03288 33.6822 8.85514 33.4042 8.74121C33.1262 8.62272 32.798 8.56348 32.4198 8.56348H31.4354Z" fill="#101011"/>
</svg>
