<svg width="24" height="24" viewBox="0 0 32 32" fill="none" xmlns="http://www.w3.org/2000/svg">
<path d="M31.0478 19.3773C33.3628 8.97567 24.2492 -0.473698 13.5465 1.34026C7.73631 -2.26502 0 1.80907 0 8.72129C0 10.3288 0.443559 11.8338 1.21479 13.131C-0.936402 23.5566 8.25179 32.8701 18.9452 30.9323C26.5043 34.9291 34.8573 26.9581 31.0478 19.3773ZM20.8739 25.6502C18.066 26.8049 13.4453 26.8116 10.6494 25.3479C6.66271 23.2223 5.95408 18.437 9.39333 18.437C11.9854 18.437 11.1649 21.459 13.7823 22.6909C14.9838 23.2463 17.5665 23.3036 19.0677 22.2914C20.5502 21.2991 20.4144 19.7382 19.6085 18.9924C17.4733 17.0213 11.3634 17.8044 8.57014 14.3536C7.35668 12.8566 7.12758 10.2156 8.61943 8.30043C11.2195 4.95486 18.8493 4.75109 22.13 7.27758C25.159 9.62161 24.3411 12.7328 21.8969 12.7328C18.9571 12.7328 20.5023 8.88644 15.7563 8.88644C12.3158 8.88644 10.9624 11.333 13.3854 12.5237C16.6701 14.1552 25.0404 13.6105 25.0404 19.986C25.0338 22.639 23.4074 24.6167 20.8739 25.6502Z" fill="#0D6EB7"/>
</svg>
