<svg width="261" height="466" viewBox="0 0 261 466" fill="none" xmlns="http://www.w3.org/2000/svg">
<path d="M28.9947 24.363C39.2939 15.2781 49.9929 6.57752 63.4742 2.65765C78.1084 -1.64653 94.741 -0.785693 108.376 5.70132C120.059 10.728 131.419 20.5968 130.85 33.9859C130.635 45.515 121.873 54.1848 113.864 61.7479C107.392 68.158 101.689 74.5682 98.338 83.1765C94.618 92.5227 91.6512 101.485 84.4109 108.663C65.365 128.263 34.3903 125.757 17.8345 104.451C8.76502 92.6918 3.89208 77.535 5.21408 62.6394C6.53607 47.7439 7.90419 35.6461 28.9947 24.363Z" fill="white"/>
<path d="M145.13 56.2444C144.208 49.2809 154 45.8529 156.567 53.2008C159.119 59.3188 146.882 64.0073 145.576 58.704" fill="white"/>
<path d="M167.511 70.6635C169.125 68.5882 174.029 67.6967 174.905 71.3706C175.797 75.8746 165.974 77.2427 166.712 71.9086" fill="white"/>
<path d="M124.093 140.735C123.504 141.954 123.055 143.147 122.658 144.455C121.773 147.315 119.582 147.379 117.159 148.084C115.16 148.674 113.827 150.175 113.237 152.112C111.866 156.523 116.685 161.692 120.158 163.552C122.337 164.719 124.285 161.397 122.094 160.23C120.312 159.268 119.005 157.909 117.915 156.216C116.134 153.471 117.3 151.996 120.21 151.252C125.144 150.008 125.452 146.802 127.425 142.685C128.476 140.44 125.157 138.491 124.093 140.735Z" fill="#4ECEA9"/>
<path d="M110.572 143.057C110.508 142.992 110.175 142.608 110.495 143.005C110.406 142.877 110.188 142.377 110.406 142.941C110.214 142.467 110.393 143.236 110.38 142.954C110.355 142.467 110.29 143.3 110.367 143.005C110.457 142.659 110.149 143.441 110.316 143.134C110.534 142.723 110.073 143.39 110.278 143.172C110.598 142.826 109.97 143.364 110.226 143.198C110.611 142.941 109.855 143.313 110.137 143.211C110.29 143.159 110.611 143.134 109.932 143.211C110.367 143.159 109.509 143.108 109.778 143.172C109.957 143.236 109.867 143.198 109.521 143.057C109.675 143.159 109.611 143.095 109.304 142.89C109.086 142.595 109.034 142.518 109.15 142.685C109.239 142.851 109.201 142.787 109.06 142.467C109.111 142.608 109.111 142.928 109.06 142.377C109.073 142.492 109.009 143.057 109.086 142.544C109.06 142.749 108.996 142.954 108.932 143.159C108.906 143.249 108.881 143.326 108.842 143.416C108.957 143.146 108.983 143.095 108.893 143.275C108.829 143.416 108.611 143.698 108.996 143.198C108.74 143.531 109.329 143.005 109.124 143.121C109.483 142.916 110.021 142.903 110.239 142.954C110.611 143.121 110.713 143.172 110.547 143.082C110.393 142.98 110.47 143.044 110.79 143.275C110.675 143.185 110.495 142.928 110.906 143.454C110.842 143.377 110.79 143.287 110.739 143.198C110.521 142.787 110.88 143.57 110.765 143.275C110.726 143.159 110.701 143.044 110.675 142.928C110.636 142.774 110.624 142.428 110.688 143.082C110.675 142.954 110.675 142.839 110.675 142.71C110.688 142.21 110.598 143.095 110.662 142.774C110.701 142.608 110.893 142.236 110.624 142.813C110.688 142.685 110.893 142.428 110.521 142.903C110.636 142.762 110.957 142.569 110.47 142.903C110.867 142.633 110.149 142.993 110.47 142.89C110.983 142.736 110.188 142.89 110.56 142.877C111.611 142.826 112.482 142.043 112.482 140.953C112.482 139.94 111.611 138.978 110.56 139.029C109.227 139.094 107.971 139.645 107.304 140.863C106.766 141.864 106.727 143.044 107.009 144.121C107.24 145.006 107.83 146.071 108.701 146.468C110.111 147.109 111.585 146.532 112.264 145.147C112.931 143.775 113.11 142.261 112.495 140.851C111.944 139.594 110.393 139.222 109.175 139.504C107.945 139.799 107.112 140.787 106.676 141.915C106.138 143.287 106.881 144.839 107.842 145.801C109.611 147.52 112.328 144.801 110.572 143.057Z" fill="#4ECEA9"/>
<path d="M144.985 149.341C144.895 149.123 144.818 148.892 144.754 148.661C144.6 148.097 144.741 148.982 144.716 148.443C144.716 148.366 144.716 148.302 144.716 148.225C144.729 147.828 144.626 148.7 144.703 148.328C144.729 148.238 144.754 148.136 144.793 148.046C144.6 148.584 144.677 148.315 144.754 148.174C144.998 147.764 144.447 148.495 144.78 148.161C144.395 148.405 145.113 147.828 144.78 148.161C145.177 147.918 144.318 148.302 144.754 148.174C145.293 148.007 144.344 148.174 144.767 148.161C145.216 148.148 144.254 148.033 144.677 148.148C144.87 148.2 144.19 147.866 144.588 148.136C144.293 147.892 144.216 147.841 144.357 147.969C144.575 148.187 144.062 147.533 144.229 147.802C144.395 148.071 144.049 147.302 144.152 147.623C144.254 147.943 144.113 147.084 144.139 147.443C144.139 147.507 144.139 147.571 144.139 147.635C144.126 148.02 144.229 147.135 144.152 147.546C144.113 147.751 144.037 147.956 143.96 148.148C144.101 147.802 144.062 147.892 143.844 148.418C143.985 148.033 143.626 148.649 143.896 148.328C143.652 148.61 143.908 148.328 144.049 148.277C144.113 148.277 144.178 148.277 144.229 148.264C144.011 148.264 143.998 148.264 144.229 148.277C144.511 148.443 144.793 148.61 145.075 148.777C145.28 149.521 145.369 149.7 145.331 149.29C145.293 148.238 144.485 147.366 143.408 147.366C142.396 147.366 141.448 148.238 141.486 149.29C141.524 150.188 141.781 150.829 142.358 151.509C142.921 152.176 144.113 152.24 144.908 152.047C145.575 151.881 146.126 151.534 146.613 151.073C146.856 150.842 147.048 150.547 147.215 150.265C147.318 150.059 147.407 149.854 147.484 149.649C147.305 150.136 147.587 149.38 147.664 149.213C148.317 147.661 147.958 145.583 146.356 144.75C144.908 144.006 143.229 144.403 142.076 145.481C140.743 146.725 140.627 148.803 141.294 150.406C141.691 151.38 142.55 152.047 143.652 151.752C144.562 151.457 145.395 150.316 144.985 149.341Z" fill="#4ECEA9"/>
<path d="M103.856 126.909C109.124 127.166 114.25 129.038 119.557 128.513C122.005 128.269 121.992 124.421 119.518 124.665C114.225 125.178 109.073 123.318 103.818 123.062C101.344 122.946 101.395 126.794 103.856 126.909Z" fill="#4ECEA9"/>
<path d="M140.742 131.321C147.215 129.128 153.085 131.014 158.916 134.053C159.327 132.848 159.737 131.642 160.147 130.436C160.198 130.462 160.237 130.501 160.288 130.526C158.263 129.167 155.712 132.052 157.763 133.438C158.301 133.797 158.724 134.079 159.378 134.207C161.544 134.656 162.544 131.604 160.608 130.59C153.867 127.076 146.92 125.152 139.486 127.666C137.154 128.474 138.397 132.117 140.742 131.321Z" fill="#4ECEA9"/>
<path d="M131.296 178.583C127.131 179.391 123.03 179.84 118.787 179.738C116.749 179.686 113.315 179.994 111.469 179.045C111.354 180.276 111.251 181.508 111.136 182.739C111.289 182.726 111.443 182.713 111.597 182.7C114.071 182.469 113.379 178.686 110.931 178.917C110.777 178.93 110.623 178.942 110.469 178.955C108.342 179.148 108.636 181.879 110.136 182.649C112.353 183.79 116.032 183.483 118.428 183.572C123.004 183.739 127.477 183.239 131.976 182.38C134.398 181.905 133.732 178.109 131.296 178.583Z" fill="#4ECEA9"/>
<path d="M113.251 100.309C124.094 102.862 133.002 108.441 144.46 108.12C157.148 107.774 169.939 104.131 180.052 114.199C190.139 124.242 177.693 131.988 172.541 139.825C166.504 149.008 175.04 159.627 171.272 169.195C170.362 171.504 174.079 172.504 174.976 170.221C176.873 165.411 176.412 160.961 175.361 156.01C173.618 147.866 174.323 142.672 180.18 136.631C186.665 129.949 190.023 123.28 185.037 114.43C179.936 105.363 167.953 102.785 158.494 103.067C150.086 103.323 142.076 105.363 133.694 103.31C127.029 101.669 120.979 98.1803 114.276 96.6027C111.867 96.0256 110.841 99.745 113.251 100.309Z" fill="#4ECEA9"/>
<path d="M173.144 171.927C176.438 172.286 180.936 174.466 183.333 170.901C184.486 169.195 185.153 167.399 185.819 165.45C186.832 162.5 187.152 162.462 190.549 162.385C198.995 162.179 198.277 171.786 196.88 177.429C194.906 185.432 188.408 187.907 180.795 187.651C181.41 188.125 182.026 188.587 182.654 189.062C182.564 188.459 182.256 188.087 181.859 187.651C180.18 185.817 177.476 188.549 179.142 190.37C179.078 190.28 179.014 190.177 178.95 190.088C179.078 190.934 180.013 191.473 180.808 191.498C187.87 191.742 193.907 190.19 198.123 184.214C201.661 179.186 202.943 170.362 200.648 164.668C198.61 159.614 192.792 158.127 187.896 158.729C185.255 159.05 183.935 159.499 182.974 161.872C182.154 163.898 181.68 165.963 180.706 167.938C179.821 169.746 174.874 168.272 173.144 168.079C170.683 167.81 170.708 171.657 173.144 171.927Z" fill="#4ECEA9"/>
<path d="M114.43 99.5528C131.63 86.3169 156.046 88.4587 175.348 95.6025C202.135 105.517 203.571 136.58 194.522 159.73C193.612 162.038 197.342 163.039 198.226 160.756C207.608 136.772 205.865 106.158 180.321 93.5761C160.237 83.6877 130.874 82.0845 112.495 96.231C110.559 97.7187 112.469 101.066 114.43 99.5528Z" fill="#4ECEA9"/>
<path d="M112.494 96.2309C106.214 100.194 101.075 105.17 97.1527 111.48C92.5003 118.983 92.3336 127.64 92.0645 136.195C91.7569 146.109 88.9628 155.728 88.2195 165.604C87.4633 175.723 89.2961 186.15 91.1801 196.052C91.6415 198.488 95.3456 197.449 94.8842 195.025C93.1795 186.073 91.9235 177.07 91.962 167.938C92.0004 159.512 94.4484 151.278 95.3712 142.941C96.3581 133.989 95.1533 124.549 98.9983 116.162C102.215 109.12 107.97 103.618 114.43 99.5527C116.519 98.2316 114.596 94.897 112.494 96.2309Z" fill="#4ECEA9"/>
<path d="M47.911 315.469C61.8043 291.909 72.0577 266.297 69.9045 238.491C69.3918 231.899 65.4827 224.806 69.2252 218.509C72.25 213.43 80.1194 211.647 85.4897 210.967C90.924 210.275 97.2682 210.685 100.87 215.379C103.856 219.291 102.523 224.357 99.5624 227.73C96.935 230.732 95.4226 221.895 95.3201 221.035C95.1663 219.702 94.2179 218.971 92.8849 219.176C90.36 219.638 87.8351 219.612 85.3102 219.112C82.8879 218.765 81.8369 222.472 84.2849 222.818C87.5788 223.293 90.6035 223.395 93.8974 222.882C93.09 222.267 92.2697 221.651 91.4623 221.023C91.898 224.819 92.8593 231.001 97.2811 232.219C102.344 233.617 106.278 225.717 106.33 221.754C106.548 205.914 88.7067 205.324 77.3638 208.813C72.1474 210.416 67.0207 213.61 64.765 218.74C63.4449 221.741 63.573 225.512 64.137 228.654C65.2649 234.887 66.2902 240.748 66.3799 247.11C66.7131 270.824 56.3444 293.525 44.553 313.533C43.3354 315.675 46.655 317.611 47.911 315.469Z" fill="#4ECEA9"/>
<path d="M79.7217 211.301C84.3742 206.517 92.5385 203.388 99.2288 204.337C106.675 205.389 114.609 223.254 103.856 224.575C101.433 224.87 101.395 228.731 103.856 228.423C107.726 227.949 113.225 226.64 113.314 221.664C113.417 216.277 111.366 210.48 107.995 206.261C100.113 196.372 84.9381 200.438 77.0046 208.582C75.2743 210.352 77.9915 213.071 79.7217 211.301Z" fill="#4ECEA9"/>
<path d="M96.2936 203.439C97.9342 201.913 99.6004 199.822 101.971 199.527C104.368 199.232 106.521 201.169 108.072 202.708C110.02 204.632 114.737 209.865 110.559 211.75C108.303 212.776 110.264 216.085 112.494 215.072C119.351 211.968 114.788 204.58 111.443 200.694C109.367 198.283 106.265 195.859 102.933 195.718C98.8826 195.551 96.3449 198.129 93.5637 200.72C91.7565 202.413 94.4737 205.132 96.2936 203.439Z" fill="#4ECEA9"/>
<path d="M82.1443 230.411C89.7062 230.501 96.9604 235.887 99.8314 242.826C100.767 245.083 104.484 244.096 103.535 241.8C100.011 233.245 91.5646 226.679 82.1443 226.563C79.6707 226.538 79.6707 230.385 82.1443 230.411Z" fill="#4ECEA9"/>
<path d="M106.56 225.294C105.971 229.026 107.291 232.04 108.085 235.682C109.559 242.493 109.957 247.674 106.624 254.01C102.459 261.91 95.8968 267.464 93.295 276.288C90.4497 285.933 91.193 296.424 88.9116 306.235C87.7453 311.224 85.6946 315.944 84.4258 320.908C83.1057 326.063 82.5674 331.373 81.337 336.555C80.7602 338.966 84.4771 339.992 85.041 337.581C87.2967 328.077 89.2961 318.843 92.0389 309.454C94.9227 299.592 94.6279 289.331 96.5248 279.315C98.4088 269.324 106.266 262.936 110.815 254.305C112.494 251.124 113.174 247.649 113.379 244.096C113.712 238.158 109.354 232.13 110.264 226.345C110.649 223.896 106.945 222.857 106.56 225.294Z" fill="#4ECEA9"/>
<path d="M111.007 220.792C123.042 227.436 138.576 228.295 150.739 221.536C161.979 215.29 171.797 200.027 175.45 187.984C176.168 185.599 172.464 184.598 171.746 186.958C168.631 197.257 160.839 208.415 152.777 215.418C142.024 224.755 124.849 224.037 112.955 217.47C110.777 216.265 108.828 219.586 111.007 220.792Z" fill="#4ECEA9"/>
<path d="M177.603 188.908C175.232 201.631 173.181 216.316 178.769 228.513C185.524 243.262 200.468 247.405 214.438 252.907C253.107 268.144 257.349 312.943 256.593 348.854C256.157 369.914 256.208 390.973 256.093 412.033C256.016 426.32 255.247 441.929 244.468 452.612C238.713 458.307 230.652 460.102 222.885 460.808C212.67 461.744 202.442 462.449 192.189 462.013C182.576 461.59 173.015 459.769 163.466 458.589C154.789 457.524 146.317 457.294 137.794 455.203C137.448 455.113 137.115 455.024 136.769 454.934C134.372 454.305 133.347 458.025 135.744 458.64C141.78 460.205 147.586 461.103 153.79 461.488C164.312 462.142 174.732 464.001 185.191 465.233C194.624 466.336 204.057 466.066 213.516 465.425C221.629 464.874 229.921 464.553 237.56 461.513C265.628 450.368 259.951 410.263 260.053 386.741C260.207 350.855 265.68 312.161 248.582 279.045C241.379 265.104 229.844 255.164 215.464 249.175C207.248 245.763 198.776 243.378 191.355 238.299C183.307 232.784 180.115 223.254 179.308 213.969C178.616 205.94 179.846 197.783 181.307 189.908C181.769 187.51 178.065 186.471 177.603 188.908Z" fill="#4ECEA9"/>
<path d="M111.264 243.532C116.827 244.634 132.066 247.366 131.873 254.908C131.809 257.396 135.654 257.383 135.718 254.908C135.988 244.724 119.838 241.326 112.289 239.825C109.867 239.35 108.842 243.057 111.264 243.532Z" fill="#4ECEA9"/>
<path d="M181.102 231.155C169.785 244.121 152.918 240.659 138.961 247.879C127.528 253.792 125.234 269.208 123.055 280.469C119.262 299.989 121.838 320.6 120.249 340.402C118.582 361.231 112.469 382.508 114.276 403.452C114.494 405.902 118.339 405.928 118.121 403.452C116.442 384.111 121.735 364.412 123.658 345.199C125.567 326.115 123.965 306.966 125.747 287.946C127.029 274.351 130.207 254.433 144.985 249.482C158.84 244.84 173.4 245.827 183.832 233.874C185.447 232.014 182.743 229.282 181.102 231.155Z" fill="#4ECEA9"/>
<path d="M107.842 265.476C118.865 272.632 134.821 270.862 147.241 269.76C162.557 268.413 176.835 261.962 187.306 250.598C188.985 248.777 186.268 246.045 184.589 247.879C174.681 258.627 161.634 264.347 147.241 265.912C135.731 267.169 119.941 268.746 109.79 262.154C107.701 260.795 105.779 264.129 107.842 265.476Z" fill="#4ECEA9"/>
<path d="M135.718 288.51C135.769 288.203 135.833 287.92 135.936 287.625C135.757 288.113 135.872 287.805 135.949 287.69C135.885 287.766 135.821 287.856 135.757 287.933C135.898 287.792 135.833 287.843 135.552 288.074C135.808 287.895 135.064 288.228 135.346 288.164C134.949 288.267 135.064 288.254 134.654 288.177C134.949 288.241 134.18 287.946 134.462 288.087C134.603 288.151 134.808 288.369 134.321 287.959C134.385 288.01 134.436 288.074 134.501 288.126C134.731 288.369 134.206 287.715 134.398 288.01C134.449 288.074 134.488 288.151 134.526 288.228C134.68 288.536 134.347 287.754 134.462 288.087C134.488 288.164 134.501 288.241 134.513 288.331C134.398 287.728 134.462 287.959 134.462 288.138C134.475 287.587 134.539 287.728 134.475 287.92C134.526 287.818 134.565 287.702 134.616 287.6C134.513 287.754 134.577 287.69 134.783 287.395C134.577 287.638 135.205 287.125 134.911 287.292C135.334 287.035 135.218 287.176 135.013 287.228C135.077 287.215 135.821 287.266 135.552 287.202C135.654 287.241 135.757 287.292 135.846 287.33C135.68 287.228 135.744 287.292 136.026 287.497C135.91 287.407 135.744 287.138 136.103 287.638C136.051 287.574 136.013 287.484 135.974 287.42C136.231 287.933 136.103 287.715 136.051 287.548C135.962 287.202 136.103 288.061 136.064 287.715C136.064 287.625 136.064 287.548 136.064 287.459C136.026 288.049 136.013 287.831 136.051 287.651C136.141 287.33 135.821 288.113 135.974 287.843C135.782 288.177 135.846 288.087 135.526 288.292C135.257 288.472 135.205 288.446 134.898 288.459C134.424 288.485 134.488 288.382 134.731 288.459C134.219 288.292 134.526 288.382 134.667 288.472C134.257 288.203 134.654 288.472 134.744 288.549C135.513 289.254 136.692 289.318 137.461 288.549C138.179 287.831 138.23 286.535 137.461 285.83C136.603 285.035 135.321 284.265 134.103 284.74C132.873 285.227 132.283 286.253 132.206 287.536C132.053 289.998 134.706 291.896 136.91 290.575C138.858 289.395 138.538 286.625 137.013 285.253C136.077 284.406 134.859 284.15 133.706 284.701C132.668 285.201 132.155 286.433 131.976 287.497C131.796 288.523 132.232 289.562 133.321 289.857C134.283 290.114 135.539 289.549 135.718 288.51Z" fill="#4ECEA9"/>
<path d="M122.53 257.434C122.581 257.126 122.645 256.844 122.747 256.549C122.568 257.037 122.683 256.729 122.76 256.613C122.696 256.69 122.632 256.78 122.568 256.857C122.709 256.716 122.645 256.767 122.363 256.998C122.619 256.819 121.876 257.152 122.158 257.088C121.761 257.191 121.876 257.178 121.466 257.101C121.761 257.165 120.992 256.87 121.274 257.011C121.414 257.088 121.62 257.293 121.133 256.883C121.197 256.934 121.248 256.998 121.299 257.05C121.53 257.293 121.004 256.639 121.197 256.934C121.248 257.011 121.286 257.088 121.325 257.152C121.479 257.46 121.145 256.678 121.261 257.011C121.286 257.088 121.299 257.165 121.325 257.255C121.209 256.652 121.274 256.883 121.274 257.062C121.286 256.511 121.35 256.652 121.286 256.844C121.338 256.742 121.376 256.626 121.427 256.524C121.325 256.678 121.389 256.613 121.594 256.318C121.389 256.562 122.017 256.049 121.722 256.216C122.145 255.959 122.03 256.1 121.825 256.152C121.889 256.139 122.632 256.19 122.363 256.126C122.465 256.165 122.568 256.216 122.658 256.254C122.491 256.152 122.555 256.216 122.837 256.421C122.722 256.331 122.555 256.062 122.914 256.562C122.863 256.498 122.824 256.408 122.786 256.344C123.042 256.857 122.914 256.639 122.863 256.472C122.773 256.126 122.914 256.985 122.876 256.639C122.863 256.549 122.876 256.472 122.876 256.383C122.837 256.973 122.824 256.755 122.863 256.575C122.953 256.254 122.632 257.037 122.786 256.767C122.594 257.101 122.658 256.998 122.337 257.216C122.068 257.396 122.017 257.37 121.709 257.383C121.248 257.409 121.299 257.306 121.543 257.383C121.03 257.216 121.338 257.306 121.491 257.396C121.081 257.139 121.479 257.396 121.568 257.473C122.337 258.178 123.516 258.242 124.285 257.473C125.003 256.755 125.054 255.459 124.285 254.754C123.427 253.959 122.145 253.189 120.927 253.664C119.697 254.151 119.107 255.177 119.031 256.46C118.877 258.922 121.53 260.82 123.734 259.499C125.682 258.319 125.362 255.549 123.837 254.164C122.901 253.317 121.684 253.061 120.53 253.612C119.492 254.113 118.979 255.344 118.8 256.421C118.62 257.447 119.056 258.486 120.146 258.781C121.094 259.037 122.35 258.473 122.53 257.434Z" fill="#4ECEA9"/>
<path d="M135.578 332.669C135.629 332.361 135.693 332.079 135.795 331.784C135.616 332.271 135.731 331.963 135.808 331.848C135.744 331.925 135.68 332.014 135.616 332.091C135.757 331.95 135.68 332.002 135.411 332.232C135.667 332.053 134.924 332.386 135.206 332.322C134.809 332.425 134.924 332.412 134.514 332.335C134.809 332.399 134.04 332.104 134.321 332.245C134.462 332.322 134.668 332.527 134.18 332.117C134.245 332.168 134.296 332.232 134.36 332.284C134.591 332.527 134.065 331.873 134.257 332.168C134.309 332.232 134.347 332.309 134.386 332.386C134.539 332.694 134.206 331.912 134.321 332.245C134.347 332.322 134.36 332.399 134.373 332.489C134.257 331.886 134.321 332.117 134.321 332.297C134.334 331.745 134.398 331.886 134.334 332.079C134.386 331.976 134.424 331.861 134.475 331.758C134.373 331.912 134.437 331.848 134.642 331.553C134.437 331.796 135.065 331.283 134.77 331.45C135.193 331.194 135.078 331.335 134.86 331.386C134.924 331.373 135.667 331.424 135.398 331.36C135.501 331.399 135.603 331.45 135.693 331.489C135.526 331.386 135.59 331.45 135.872 331.655C135.757 331.566 135.59 331.296 135.949 331.796C135.898 331.732 135.859 331.643 135.821 331.578C136.077 332.091 135.949 331.873 135.898 331.707C135.808 331.36 135.949 332.232 135.911 331.873C135.911 331.784 135.911 331.707 135.911 331.617C135.872 332.207 135.859 331.989 135.898 331.809C135.988 331.489 135.667 332.271 135.821 332.002C135.629 332.335 135.693 332.232 135.372 332.451C135.103 332.63 135.052 332.604 134.744 332.617C134.283 332.643 134.334 332.54 134.578 332.617C134.065 332.451 134.373 332.54 134.527 332.63C134.116 332.361 134.514 332.63 134.603 332.707C135.372 333.412 136.552 333.477 137.321 332.707C138.038 331.989 138.09 330.693 137.321 329.988C136.462 329.193 135.18 328.423 133.963 328.898C132.732 329.385 132.143 330.411 132.066 331.694C131.912 334.156 134.565 336.054 136.769 334.733C138.718 333.554 138.397 330.783 136.872 329.411C135.936 328.564 134.719 328.308 133.565 328.859C132.527 329.36 132.014 330.591 131.835 331.655C131.656 332.681 132.091 333.72 133.181 334.015C134.155 334.272 135.411 333.707 135.578 332.669Z" fill="#4ECEA9"/>
<path d="M130.079 381.072C130.131 380.764 130.195 380.482 130.297 380.187C130.118 380.674 130.233 380.379 130.31 380.251C130.246 380.328 130.182 380.418 130.118 380.495C130.259 380.354 130.182 380.405 129.913 380.636C130.169 380.456 129.426 380.79 129.708 380.725C129.31 380.828 129.426 380.815 129.016 380.738C129.323 380.802 128.541 380.507 128.823 380.649C128.964 380.713 129.169 380.931 128.682 380.52C128.747 380.572 128.798 380.636 128.849 380.687C129.08 380.931 128.554 380.277 128.747 380.572C128.798 380.649 128.836 380.713 128.875 380.79C129.029 381.097 128.695 380.315 128.811 380.649C128.836 380.725 128.849 380.802 128.862 380.892C128.747 380.302 128.811 380.52 128.811 380.7C128.823 380.148 128.888 380.289 128.823 380.482C128.875 380.379 128.913 380.264 128.964 380.161C128.862 380.328 128.926 380.251 129.131 379.956C128.926 380.2 129.554 379.687 129.259 379.853C129.682 379.597 129.567 379.738 129.362 379.789C129.426 379.776 130.169 379.828 129.9 379.764C130.003 379.802 130.105 379.853 130.195 379.892C130.028 379.789 130.092 379.853 130.374 380.059C130.259 379.969 130.092 379.699 130.451 380.2C130.4 380.135 130.361 380.046 130.323 379.969C130.579 380.482 130.451 380.264 130.4 380.097C130.31 379.751 130.451 380.61 130.413 380.264C130.413 380.174 130.413 380.097 130.413 380.007C130.374 380.597 130.361 380.379 130.4 380.2C130.49 379.879 130.169 380.661 130.323 380.392C130.131 380.725 130.195 380.623 129.874 380.841C129.605 381.02 129.554 380.995 129.246 381.008C128.785 381.033 128.836 380.931 129.08 381.008C128.567 380.841 128.875 380.931 129.029 381.02C128.618 380.751 129.016 381.02 129.105 381.097C129.874 381.803 131.054 381.867 131.823 381.097C132.54 380.379 132.592 379.084 131.823 378.378C130.964 377.583 129.682 376.814 128.465 377.288C127.234 377.776 126.645 378.802 126.568 380.084C126.414 382.547 129.067 384.445 131.271 383.124C133.22 381.944 132.899 379.174 131.374 377.801C130.438 376.955 129.221 376.698 128.067 377.25C127.029 377.75 126.516 378.981 126.337 380.046C126.158 381.072 126.593 382.111 127.683 382.406C128.657 382.662 129.913 382.098 130.079 381.072Z" fill="#4ECEA9"/>
<path d="M70.391 356.242C70.4423 355.934 70.5063 355.652 70.6089 355.357C70.4294 355.844 70.5448 355.536 70.6217 355.421C70.5576 355.498 70.4935 355.588 70.4294 355.665C70.5704 355.524 70.4935 355.575 70.2244 355.806C70.4807 355.626 69.7373 355.96 70.0193 355.896C69.622 355.998 69.7373 355.985 69.3272 355.908C69.622 355.972 68.853 355.678 69.135 355.819C69.2759 355.896 69.481 356.101 68.994 355.69C69.0581 355.742 69.1093 355.806 69.1606 355.857C69.3913 356.101 68.8658 355.447 69.0581 355.742C69.1093 355.806 69.1478 355.883 69.1862 355.96C69.34 356.267 69.0068 355.485 69.1221 355.819C69.1478 355.896 69.1606 355.972 69.1734 356.062C69.0581 355.472 69.1221 355.69 69.1221 355.87C69.135 355.318 69.199 355.459 69.135 355.652C69.1862 355.549 69.2247 355.434 69.2759 355.331C69.1734 355.485 69.2375 355.421 69.4426 355.126C69.2375 355.37 69.8655 354.857 69.5707 355.023C69.9937 354.767 69.8783 354.908 69.6733 354.959C69.7373 354.946 70.4807 354.998 70.2116 354.934C70.3141 354.972 70.4166 355.023 70.5063 355.062C70.3397 354.959 70.4038 355.023 70.6858 355.216C70.5704 355.126 70.4038 354.857 70.7627 355.357C70.7114 355.293 70.673 355.203 70.6345 355.126C70.8908 355.639 70.7627 355.421 70.7114 355.254C70.6217 354.908 70.7627 355.767 70.7242 355.421C70.7242 355.331 70.7242 355.254 70.7242 355.164C70.6858 355.754 70.673 355.536 70.7114 355.357C70.8011 355.036 70.4807 355.819 70.6345 355.549C70.4423 355.883 70.5063 355.78 70.1859 355.998C69.9168 356.178 69.8655 356.152 69.5579 356.165C69.0837 356.191 69.1478 356.088 69.3913 356.165C68.8786 355.998 69.1862 356.088 69.34 356.178C68.9299 355.908 69.3272 356.178 69.4169 356.255C70.1859 356.96 71.3651 357.024 72.1341 356.255C72.8518 355.536 72.9031 354.241 72.1341 353.536C71.2753 352.74 69.9937 351.971 68.7761 352.445C67.5457 352.933 66.9561 353.959 66.8792 355.241C66.7254 357.704 69.3785 359.602 71.5829 358.281C73.5311 357.101 73.2107 354.331 71.6855 352.959C70.7499 352.112 69.5323 351.855 68.3788 352.407C67.3406 352.907 66.8279 354.138 66.6485 355.203C66.4691 356.229 66.9048 357.268 67.9943 357.563C68.9683 357.832 70.2244 357.268 70.391 356.242Z" fill="#4ECEA9"/>
<path d="M236.112 267.643C234.984 271.901 231.741 275.223 229.344 278.814C226.217 283.496 224.833 289.164 221.706 293.91C220.334 295.988 223.666 297.911 225.025 295.846C228.152 291.101 229.947 285.727 232.664 280.751C234.958 276.544 238.547 273.44 239.816 268.656C240.456 266.271 236.752 265.245 236.112 267.643Z" fill="#4ECEA9"/>
<path d="M67.0975 248.11C55.1266 250.265 43.3224 253.548 33.3125 260.679C22.8541 268.131 17.2275 279.52 14.3566 291.755C10.5116 308.185 12.0111 325.345 7.94822 341.762C4.16729 356.986 -1.74123 372.607 0.488885 388.562C3.35983 409.134 22.3542 439.389 46.9624 430.989C58.1257 427.179 65.9696 415.56 70.8015 405.453C76.2999 393.936 78.9786 380.841 79.4272 368.131C79.5169 365.643 75.6719 365.656 75.5821 368.131C74.8388 389.19 66.777 420.164 44.2709 427.846C31.8899 432.066 20.3933 421.203 13.8439 412.071C5.94881 401.067 3.07787 388.228 4.257 374.839C5.50023 360.808 11.2293 347.585 13.4851 333.746C15.7023 320.151 15.2922 306.299 18.0734 292.768C20.6752 280.084 27.1349 269.298 37.9778 262.128C46.8983 256.216 57.7541 253.676 68.1356 251.817C70.558 251.381 69.5326 247.674 67.0975 248.11Z" fill="#4ECEA9"/>
<path d="M41.3486 319.92C31.3003 330.142 21.7006 340.813 14.7924 353.459C13.6004 355.639 16.92 357.575 18.1119 355.395C24.8663 343.031 34.2482 332.63 44.0658 322.639C45.8089 320.869 43.0917 318.15 41.3486 319.92Z" fill="#4ECEA9"/>
<path d="M46.1811 321.267C51.6538 335.977 67.9311 351.817 83.8495 341.018C82.8882 340.466 81.927 339.915 80.9529 339.363C80.9401 345.956 79.6712 352.368 78.7484 358.871C77.5052 367.515 69.7895 369.529 62.1764 367.874C50.59 365.348 36.0559 352.343 34.0052 340.543C33.5822 338.106 29.8782 339.145 30.3012 341.569C32.8517 356.203 50.4747 370.273 64.7397 372.222C83.7085 374.813 84.7851 352.958 84.8107 339.376C84.8107 337.991 83.1446 336.875 81.9142 337.722C68.2515 346.994 54.5376 332.732 49.9108 320.279C49.0392 317.945 45.3224 318.945 46.1811 321.267Z" fill="#4ECEA9"/>
<path d="M216.003 324.242C209.723 335.003 207.595 349.495 205.685 361.641C204.622 368.4 203.648 375.185 202.776 381.969C202.097 387.254 202.789 394.205 200.918 399.194C200.046 401.515 203.763 402.516 204.622 400.22C205.839 396.988 205.442 392.756 205.762 389.395C206.544 381.277 207.787 373.197 209.005 365.142C210.902 352.638 212.837 337.286 219.322 326.191C220.578 324.037 217.259 322.113 216.003 324.242Z" fill="#4ECEA9"/>
<path d="M27.1736 428.09C26.0458 431.989 26.379 435.131 29.109 438.235C31.2494 440.672 34.1972 440.774 35.4276 444.353C36.0685 446.225 36.4145 447.957 37.4398 449.675C39.8366 453.702 46.2962 452.869 49.7952 455.229C53.512 457.742 57.3827 457.871 61.4712 456.152C73.1857 451.24 75.9798 437.029 91.4239 441.557C98.8705 443.737 105.843 448.534 112.93 451.689C119.006 454.395 125.017 454.344 131.476 455.344C133.899 455.716 134.937 452.009 132.502 451.637C127.093 450.804 121.595 450.881 116.404 448.995C110.418 446.828 104.689 443.532 99.0243 440.659C91.3599 436.773 82.0805 434.323 74.6468 440.133C66.9952 446.11 60.6638 457.948 50.0002 450.74C48.3084 449.598 47.219 449.547 45.2837 449.303C39.6315 448.572 39.9519 445.661 38.7215 442.108C36.7862 436.516 28.6219 437.042 30.9033 429.154C31.5698 426.73 27.8657 425.717 27.1736 428.09Z" fill="#4ECEA9"/>
<path d="M73.0697 397.347C81.862 400.002 90.9491 401.079 99.9721 402.657C104.394 403.439 108.803 404.44 113.173 405.504C117.928 406.671 123.004 406.659 127.541 408.621C129.797 409.596 131.758 406.274 129.476 405.299C126.375 403.952 123.273 403.35 119.928 402.888C115.006 402.208 110.213 400.823 105.342 399.823C94.9351 397.681 84.2972 396.706 74.0951 393.628C71.7112 392.91 70.6986 396.629 73.0697 397.347Z" fill="#4ECEA9"/>
<path d="M132.771 405.453C124.709 413.289 124.85 423.319 125.978 433.784C126.926 442.608 127.644 452.74 135.296 458.473C137.282 459.961 139.192 456.614 137.231 455.152C130.976 450.458 130.566 440.903 129.81 433.784C128.836 424.447 128.131 415.316 135.475 408.185C137.269 406.44 134.552 403.721 132.771 405.453Z" fill="#4ECEA9"/>
<path d="M139.063 408.916C152.662 411.199 166.401 412.379 180.064 409.942C186.921 408.723 193.599 406.53 200.302 404.709C206.313 403.067 212.17 404.094 217.848 401.015C220.027 399.835 218.091 396.514 215.913 397.694C210.786 400.464 204.865 399.912 199.276 400.99C193.214 402.157 187.306 404.388 181.269 405.761C167.76 408.839 153.598 407.454 140.076 405.197C137.666 404.799 136.628 408.505 139.063 408.916Z" fill="#4ECEA9"/>
<path d="M204.109 403.362C208.351 396.68 214.337 391.435 219.771 385.766C221.488 383.97 218.771 381.251 217.054 383.047C211.389 388.959 205.211 394.449 200.789 401.413C199.456 403.529 202.789 405.453 204.109 403.362Z" fill="#4ECEA9"/>
<path d="M152.675 409.224C150.701 415.88 146.574 420.959 145.498 428.116C144.434 435.221 145.318 442.39 146.792 449.367C147.305 451.791 151.009 450.765 150.496 448.341C148.971 441.146 148.445 434.144 149.548 426.846C150.47 420.69 154.674 416.008 156.379 410.237C157.097 407.864 153.38 406.851 152.675 409.224Z" fill="#4ECEA9"/>
<path d="M34.5819 263.578C40.0419 272.889 44.8225 282.534 48.8854 292.551C49.8082 294.821 53.5251 293.833 52.5894 291.524C48.3984 281.2 43.5408 271.247 37.9015 261.641C36.6582 259.499 33.3259 261.436 34.5819 263.578Z" fill="#4ECEA9"/>
<path d="M34.7479 288.356C39.1825 290.691 43.3351 293.666 46.8085 297.283C48.5259 299.079 51.2431 296.347 49.5256 294.564C45.8344 290.716 41.387 287.51 36.6833 285.035C34.4916 283.88 32.5563 287.202 34.7479 288.356Z" fill="#4ECEA9"/>
<path d="M56.8311 44.8136C60.8172 38.8497 69.0327 37.4518 75.3129 40.376C81.2342 43.1206 80.5677 49.5462 76.8124 53.7658C74.7618 56.0615 71.5063 57.3954 68.8789 58.9344C61.1119 63.5003 58.5999 70.9775 57.8693 79.5578C57.6899 81.7125 61.2529 82.1998 61.6502 80.0708C61.804 79.2115 61.9707 78.3522 62.1245 77.4929C62.573 75.0689 58.869 74.03 58.4204 76.4669C58.2666 77.3262 58.1 78.1855 57.9462 79.0448C59.2022 79.2115 60.4583 79.3911 61.7271 79.5578C61.9963 76.4027 62.714 73.2348 63.5984 70.1952C65.1108 64.9496 70.5963 62.3588 74.9412 59.8963C80.7856 56.5745 84.9126 50.9313 83.4002 44.0441C82.0288 37.8365 74.5182 35.3484 69.0839 35.0277C62.9319 34.6686 56.8824 37.8237 53.5116 42.8769C52.1274 44.9418 55.4598 46.8657 56.8311 44.8136Z" fill="#4ECEA9"/>
<path d="M57.2926 91.8317C57.4976 92.2037 57.7155 92.5756 57.9334 92.9347C57.959 92.9732 58.1769 93.4991 58.0359 93.1399C58.2026 93.6145 58.0616 92.8321 58.0872 93.4093C58.728 92.768 59.3689 92.1267 60.0097 91.4854C59.497 91.4983 58.9844 91.4983 58.4717 91.5111C59.1125 92.1524 59.7534 92.7936 60.3942 93.4349C60.3942 93.2682 60.3942 93.0886 60.3814 92.9219C60.2917 93.2425 60.202 93.5632 60.1251 93.8966C60.2917 93.5503 60.4583 93.2041 60.6249 92.8578C59.7534 93.0886 58.869 93.3195 57.9975 93.5504C58.8178 93.9479 59.5227 94.2173 60.4198 93.7427C61.1889 93.3323 61.4965 92.3832 61.3042 91.5752C61.2658 91.4085 61.2017 91.2418 61.0991 91.0879C61.2658 91.4341 61.3683 92.0498 60.83 92.7295C61.4708 91.8959 61.6374 90.8185 60.83 90.0105C60.1635 89.3436 58.7537 89.1769 58.1128 90.0105C57.7412 90.4851 57.3438 91.0366 57.3951 91.6907C57.4079 91.9215 57.4336 92.1652 57.4976 92.3832C57.5745 92.5628 57.6514 92.7423 57.7283 92.9219C57.8181 93.1143 57.7796 92.9989 57.6002 92.6013C57.895 91.883 58.1897 91.152 58.4845 90.4338C58.4845 90.4338 58.4717 90.4338 58.4717 90.4466C58.9716 90.3825 59.4586 90.3183 59.9584 90.2542C59.7021 90.1901 60.5608 90.5364 59.9584 90.2414C59.0741 89.8181 57.8052 89.9336 57.331 90.934C57.19 91.2418 57.0362 91.5368 56.8952 91.8446C56.6389 92.3832 56.5748 92.8706 56.5748 93.4477C56.5876 94.4866 57.4336 95.3844 58.4973 95.3716C59.01 95.3587 59.5227 95.3587 60.0353 95.3459C61.0479 95.3331 62.0091 94.4866 61.9579 93.4221C61.881 92.0498 61.2529 91.075 60.6249 89.8951C60.1379 88.9717 58.869 88.6895 57.9975 89.2025C57.049 89.7412 56.7927 90.9083 57.2926 91.8317Z" fill="#4ECEA9"/>
</svg>
