<svg width="22" height="21" viewBox="0 0 22 21" fill="none" xmlns="http://www.w3.org/2000/svg">
<g id="clock (13) 1" clip-path="url(#clip0_2010_2019)">
<g id="Group">
<path id="Vector" d="M10.898 -6.10352e-05C5.26403 -6.10352e-05 0.68042 4.58346 0.68042 10.2174C0.68042 15.8516 5.26403 20.4354 10.898 20.4354C16.5319 20.4354 21.1154 15.8515 21.1154 10.2174C21.1154 4.58346 16.5319 -6.10352e-05 10.898 -6.10352e-05ZM10.898 18.9707C6.07167 18.9707 2.14511 15.0439 2.14511 10.2174C2.14511 5.39109 6.07167 1.46463 10.898 1.46463C15.7243 1.46463 19.6508 5.39109 19.6508 10.2174C19.6508 15.0439 15.7243 18.9707 10.898 18.9707Z" fill="#2B2B2B"/>
<path id="Vector_2" d="M16.1518 10.0463H11.3502V4.79765C11.3502 4.3932 11.0224 4.06531 10.6178 4.06531C10.2134 4.06531 9.8855 4.3932 9.8855 4.79765V10.7787C9.8855 11.1831 10.2134 11.511 10.6178 11.511H16.1518C16.5564 11.511 16.8842 11.1831 16.8842 10.7787C16.8842 10.3742 16.5563 10.0463 16.1518 10.0463Z" fill="#2B2B2B"/>
</g>
</g>
<defs>
<clipPath id="clip0_2010_2019">
<rect width="20.4354" height="20.4354" fill="white" transform="translate(0.679688 -6.10352e-05)"/>
</clipPath>
</defs>
</svg>
