<svg width="25" height="21" viewBox="0 0 25 21" fill="none" xmlns="http://www.w3.org/2000/svg">
<g id="developer 1" clip-path="url(#clip0_2010_2072)">
<path id="Vector" d="M9.98169 0.669189C7.22469 0.669189 4.98169 2.53836 4.98169 4.83586C4.98169 7.13336 7.22469 9.00252 9.98169 9.00252C12.7387 9.00252 14.9817 7.13336 14.9817 4.83586C14.9817 2.53836 12.7387 0.669189 9.98169 0.669189Z" fill="#276ED8"/>
<path id="Vector_2" d="M17.5637 20.6525C17.1597 20.575 16.9087 20.24 17.0007 19.9033L18.5007 14.4867C18.5947 14.1508 18.9977 13.9383 19.3997 14.0183C19.8037 14.0958 20.0547 14.4308 19.9627 14.7675L18.4627 20.1842C18.3677 20.5292 17.9527 20.7317 17.5637 20.6525Z" fill="#06B25F"/>
<path id="Vector_3" d="M21.7316 19.8358C21.5266 19.8358 21.3226 19.7658 21.1736 19.6292C20.8966 19.3717 20.9216 18.9775 21.2296 18.7458L23.1106 17.3358L21.2296 15.9258C20.9216 15.695 20.8966 15.3 21.1736 15.0425C21.4516 14.7858 21.9256 14.7658 22.2336 14.9958L24.7336 16.8708C24.8916 16.99 24.9816 17.1583 24.9816 17.3358C24.9816 17.5133 24.8916 17.6817 24.7336 17.8008L22.2336 19.6758C22.0896 19.7833 21.9106 19.8358 21.7316 19.8358Z" fill="#06B25F"/>
<path id="Vector_4" d="M15.2317 19.8359C15.0527 19.8359 14.8737 19.7834 14.7297 19.6759L12.2297 17.8009C12.0717 17.6817 11.9817 17.5134 11.9817 17.3359C11.9817 17.1584 12.0717 16.99 12.2297 16.8709L14.7297 14.9959C15.0377 14.7659 15.5117 14.7867 15.7897 15.0425C16.0667 15.3 16.0417 15.6942 15.7337 15.9259L13.8527 17.3359L15.7337 18.7459C16.0417 18.9767 16.0667 19.3717 15.7897 19.6292C15.6407 19.7659 15.4367 19.8359 15.2317 19.8359Z" fill="#06B25F"/>
<path id="Vector_5" d="M10.2317 17.3359C10.2317 16.6892 10.5627 16.0684 11.1387 15.635L13.6417 13.7575C14.1497 13.3775 14.8017 13.17 15.4807 13.17C16.0437 13.17 16.5877 13.3184 17.0447 13.5809C17.3847 13.0267 17.9767 12.6167 18.6837 12.4375C17.8307 11.3725 16.3787 10.6692 14.7317 10.6692H5.73169C3.11269 10.6692 0.981689 12.445 0.981689 14.6275V17.9609C0.981689 18.3059 1.31769 18.5859 1.73169 18.5859H10.6897C10.3997 18.2159 10.2317 17.7842 10.2317 17.3359V17.3359Z" fill="#276ED8"/>
</g>
<defs>
<clipPath id="clip0_2010_2072">
<rect width="24" height="20" fill="white" transform="translate(0.981689 0.669189)"/>
</clipPath>
</defs>
</svg>
