<svg width="24" height="24" viewBox="0 0 24 24" fill="none" xmlns="http://www.w3.org/2000/svg">
<g id="gallery 1" clip-path="url(#clip0_1_4842)">
<g id="Group">
<g id="Group_2">
<g id="Group_3">
<path id="Vector" d="M12.0959 9.31171C10.7582 9.31171 9.67377 10.356 9.67377 11.6442C9.67377 12.9323 10.7582 13.9767 12.0959 13.9767C13.4335 13.9767 14.518 12.9324 14.518 11.6442C14.518 10.356 13.4336 9.31171 12.0959 9.31171ZM12.0959 12.8659C11.3952 12.8659 10.8271 12.3189 10.8271 11.6441C10.8271 10.9694 11.3952 10.4224 12.0959 10.4224C12.7966 10.4224 13.3646 10.9694 13.3646 11.6441C13.3646 12.3189 12.7966 12.8659 12.0959 12.8659Z" fill="#6F6E6E"/>
<path id="Vector_2" d="M21.7534 3.97986L6.00988 2.25832C5.39886 2.17467 4.77978 2.34644 4.30867 2.73039C3.83762 3.08212 3.53567 3.60351 3.47248 4.17427L3.18416 6.45121H2.29023C1.02151 6.45121 0.0699626 7.53411 0.0699626 8.75589V20.1127C0.0380071 21.2778 0.992864 22.2473 2.20276 22.2781C2.2319 22.2788 2.26109 22.279 2.29023 22.2786H18.1203C19.389 22.2786 20.5424 21.3345 20.5424 20.1127V19.6685C20.9357 19.5953 21.3089 19.444 21.6381 19.2242C22.1053 18.8454 22.4044 18.309 22.4743 17.7248L23.8007 6.45121C23.9359 5.22662 23.0233 4.12501 21.7534 3.97986ZM19.389 20.1127C19.389 20.7236 18.7547 21.1679 18.1203 21.1679H2.29023C1.71719 21.1841 1.23901 20.7499 1.22218 20.198C1.2213 20.1696 1.22168 20.1412 1.22334 20.1127V18.058L5.69269 14.8925C6.22959 14.4955 6.98581 14.5308 7.48043 14.9758L10.6234 17.6414C11.1007 18.0273 11.7015 18.2431 12.3246 18.2523C12.8119 18.2581 13.2911 18.1331 13.7087 17.8913L19.3891 14.7259V20.1127H19.389ZM19.389 13.4208L13.1031 16.9473C12.5633 17.2552 11.8801 17.1994 11.4019 16.8084L8.23009 14.115C7.32104 13.3628 5.99238 13.3166 5.02947 14.0039L1.22334 16.6696V8.75589C1.22334 8.145 1.65587 7.56191 2.29023 7.56191H18.1203C18.798 7.58896 19.3454 8.10408 19.389 8.75589V13.4208ZM22.6484 6.30128C22.648 6.30495 22.6477 6.30867 22.6473 6.31234L21.292 17.5859C21.2944 17.8782 21.1559 18.1551 20.9172 18.3356C20.8018 18.4467 20.5423 18.5022 20.5423 18.5578V8.75589C20.4968 7.4909 19.4343 6.47986 18.1202 6.45121H4.33748L4.59699 4.28536C4.65329 4.00489 4.80556 3.75073 5.02952 3.56339C5.2824 3.39501 5.58816 3.31651 5.89458 3.34122L21.6093 5.09056C22.2434 5.14854 22.7086 5.6906 22.6484 6.30128Z" fill="#6F6E6E"/>
</g>
</g>
</g>
</g>
<defs>
<clipPath id="clip0_1_4842">
<rect width="23.7448" height="22.8661" fill="white" transform="translate(0.0693359 0.825653)"/>
</clipPath>
</defs>
</svg>
