<svg width="29" height="22" viewBox="0 0 29 22" fill="none" xmlns="http://www.w3.org/2000/svg">
<g id="Group">
<path id="Vector" d="M8.77148 8.08252C11.2641 8.08252 12.2481 9.37672 12.7705 10.3142C13.1725 9.70089 14.0116 9.27828 14.9792 9.27828C15.9468 9.27828 16.7859 9.70089 17.1879 10.3142C17.7103 9.37672 18.6938 8.08252 21.187 8.08252C26.9358 8.08252 28.9766 16.8239 28.9766 18.5914C28.9766 20.931 27.2333 21.761 25.7406 21.761C23.1145 21.761 20.2904 18.3809 18.9279 16.6925H11.0305C9.66909 18.3797 6.83461 21.761 4.21784 21.761C2.72512 21.761 0.981876 20.931 0.981876 18.5914C0.981876 17.8484 2.51999 8.08252 8.77148 8.08252Z" fill="#276ED8"/>
<g id="Vector_2">
<path d="M20.7283 13.3882H19.9079C19.455 13.3882 19.0874 13.1114 19.0874 12.7703C19.0874 12.4293 19.455 12.1525 19.9079 12.1525H20.7283V11.5346C20.7283 11.1935 21.0959 10.9167 21.5488 10.9167C22.0017 10.9167 22.3693 11.1935 22.3693 11.5346V12.1525H23.1898C23.6427 12.1525 24.0103 12.4293 24.0103 12.7703C24.0103 13.1114 23.6427 13.3882 23.1898 13.3882H22.3693V14.006C22.3693 14.3471 22.0017 14.6239 21.5488 14.6239C21.0959 14.6239 20.7283 14.3471 20.7283 14.006V13.3882Z" fill="#66D6A0"/>
<path d="M16.626 14.6239H13.344C12.8911 14.6239 12.5236 14.3471 12.5236 14.006C12.5236 13.665 12.8911 13.3882 13.344 13.3882H16.626C17.0789 13.3882 17.4464 13.665 17.4464 14.006C17.4464 14.3471 17.0789 14.6239 16.626 14.6239Z" fill="#66D6A0"/>
<path d="M7.6007 11.5346C7.6007 11.1935 7.96828 10.9167 8.42118 10.9167C8.87409 10.9167 9.24166 11.1935 9.24166 11.5346C9.24166 11.8757 8.87409 12.1525 8.42118 12.1525C7.96828 12.1525 7.6007 11.8757 7.6007 11.5346Z" fill="#66D6A0"/>
<path d="M10.8826 12.7703C10.8826 13.1114 10.515 13.3882 10.0621 13.3882C9.60923 13.3882 9.24166 13.1114 9.24166 12.7703C9.24166 12.4293 9.60923 12.1525 10.0621 12.1525C10.515 12.1525 10.8826 12.4293 10.8826 12.7703Z" fill="#66D6A0"/>
<path d="M9.24166 14.006C9.24166 14.3471 8.87409 14.6239 8.42118 14.6239C7.96828 14.6239 7.6007 14.3471 7.6007 14.006C7.6007 13.665 7.96828 13.3882 8.42118 13.3882C8.87409 13.3882 9.24166 13.665 9.24166 14.006Z" fill="#66D6A0"/>
<path d="M7.6007 12.7703C7.6007 13.1114 7.23313 13.3882 6.78023 13.3882C6.32732 13.3882 5.95975 13.1114 5.95975 12.7703C5.95975 12.4293 6.32732 12.1525 6.78023 12.1525C7.23313 12.1525 7.6007 12.4293 7.6007 12.7703Z" fill="#66D6A0"/>
</g>
<g id="Group_2">
<path id="Vector_3" d="M14.091 8.11447C14.3782 8.0671 14.6752 8.04239 14.9782 8.04239C15.238 8.04239 15.4929 8.06051 15.7407 8.09511C15.8145 7.30096 16.0465 6.47015 16.6104 6.04548C18.0606 4.95336 21.6609 5.71756 23.748 5.69371C27.2546 5.6538 29.0281 4.16312 28.981 2.27915C28.9716 1.90197 28.9428 1.50901 28.7814 1.10881C28.6506 0.781755 28.1928 0.597222 27.7591 0.695667C27.3264 0.794112 27.0808 1.13723 27.2093 1.46304C27.9893 3.46947 26.2649 4.97284 21.6886 4.34514C19.7962 4.07551 16.8637 4.10702 15.4503 5.17142C14.6517 5.7728 14.1944 6.76302 14.091 8.11447V8.11447Z" fill="#276ED8"/>
</g>
</g>
</svg>
