<svg width="38" height="14" viewBox="0 0 38 14" fill="none" xmlns="http://www.w3.org/2000/svg">
<g id="&#208;&#159;&#208;&#187;&#208;&#176;&#209;&#130;&#209;&#132;&#208;&#190;&#209;&#128;&#208;&#188;&#208;&#176;">
<path id="Vector" d="M29.2627 3.1134H24.1777V6.06384H14.7873V3.1134H9.70002C7.75001 3.1134 6.1218 3.93118 5.76782 5.0097V11.491C6.1218 12.5695 7.75001 13.3871 9.70002 13.3871H12.3408L13.3906 9.8953H25.5744L26.6243 13.3871H29.2627C31.2128 13.3871 32.841 12.5695 33.1949 11.491V5.0097C32.8412 3.93118 31.2128 3.1134 29.2627 3.1134Z" fill="#276ED8"/>
<path id="Vector_2" d="M16.9546 0.669189H22.0111V4.79943H16.9546V0.669189Z" fill="#06B25F"/>
<path id="Vector_3" d="M0.981689 5.1084H3.60099V11.3922H0.981689V5.1084Z" fill="#276ED8"/>
<path id="Vector_4" d="M35.3633 5.1084H37.982V11.3922H35.3633V5.1084Z" fill="#276ED8"/>
<path id="Vector_5" d="M15.2126 11.1597L14.5427 13.3873H24.4263L23.7564 11.1597H15.2126Z" fill="#06B25F"/>
</g>
</svg>
