<svg width="21" height="21" viewBox="0 0 21 21" fill="none" xmlns="http://www.w3.org/2000/svg">
<g id="black-star-silhouette (6) 1" clip-path="url(#clip0_2010_2030)">
<g id="Group">
<g id="Group_2">
<path id="Vector" d="M10.1386 1.44676C10.2389 1.24346 10.446 1.11475 10.6727 1.11475C10.8995 1.11471 11.1065 1.24342 11.2069 1.44672L13.5303 6.15374C13.7488 6.59634 14.1711 6.90319 14.6595 6.97413L19.8543 7.72928C20.0787 7.76192 20.2651 7.91906 20.3352 8.13471C20.4052 8.35033 20.3468 8.58706 20.1845 8.74534L16.4258 12.4096C16.0724 12.7542 15.9111 13.2506 15.9945 13.7371L16.8813 18.9101C16.9196 19.1336 16.8278 19.3594 16.6443 19.4926C16.4609 19.6259 16.2177 19.6434 16.0171 19.5379L11.3706 17.0956C10.9338 16.866 10.4118 16.866 9.97483 17.0957L5.32884 19.5379C5.12813 19.6434 4.88495 19.6257 4.70154 19.4925C4.51809 19.3592 4.42627 19.1333 4.46457 18.9099L5.35185 13.7373C5.43533 13.2507 5.27402 12.7542 4.9205 12.4096L1.16159 8.74538C0.99926 8.5871 0.940784 8.35037 1.01086 8.13475C1.08094 7.91914 1.26733 7.76199 1.49172 7.72932L6.68632 6.97421C7.17481 6.90319 7.59711 6.59638 7.8156 6.1537L10.1386 1.44676Z" fill="#FFB800"/>
</g>
</g>
</g>
<defs>
<clipPath id="clip0_2010_2030">
<rect width="19.3827" height="19.3827" fill="white" transform="translate(0.981445 0.669189)"/>
</clipPath>
</defs>
</svg>
