<svg width="25" height="26" viewBox="0 0 25 26" fill="none" xmlns="http://www.w3.org/2000/svg">
<g id="refresh (9) 1">
<g id="Solid">
<path id="Vector" d="M17.2829 6.60568H15.5428L16.9998 5.14867C17.1045 5.04402 17.1875 4.91978 17.2441 4.78305C17.3008 4.64632 17.3299 4.49977 17.3299 4.35177C17.3299 4.20378 17.3008 4.05723 17.2441 3.9205C17.1875 3.78377 17.1045 3.65953 16.9998 3.55488C16.8952 3.45023 16.7709 3.36722 16.6342 3.31058C16.4975 3.25394 16.3509 3.22479 16.2029 3.22479C16.0549 3.22479 15.9084 3.25394 15.7716 3.31058C15.6349 3.36722 15.5107 3.45023 15.406 3.55488L12.0252 6.93574C11.9205 7.04039 11.8375 7.16462 11.7809 7.30135C11.7242 7.43809 11.6951 7.58464 11.6951 7.73263C11.6951 7.88063 11.7242 8.02718 11.7809 8.16391C11.8375 8.30065 11.9205 8.42488 12.0252 8.52953L15.406 11.9104C15.6174 12.1217 15.904 12.2405 16.2029 12.2405C16.5018 12.2405 16.7885 12.1217 16.9998 11.9104C17.2112 11.699 17.3299 11.4124 17.3299 11.1135C17.3299 10.8146 17.2112 10.5279 16.9998 10.3166L15.5428 8.85959H17.2829C18.3788 8.85959 19.4299 9.29494 20.2048 10.0699C20.9797 10.8448 21.4151 11.8958 21.4151 12.9917C21.4151 14.0877 20.9797 15.1387 20.2048 15.9136C19.4299 16.6886 18.3788 17.1239 17.2829 17.1239C16.984 17.1239 16.6974 17.2426 16.486 17.454C16.2747 17.6653 16.156 17.952 16.156 18.2509C16.156 18.5497 16.2747 18.8364 16.486 19.0477C16.6974 19.2591 16.984 19.3778 17.2829 19.3778C20.8042 19.3778 23.669 16.513 23.669 12.9917C23.669 9.47049 20.8042 6.60568 17.2829 6.60568Z" fill="#797979"/>
<path id="Vector_2" d="M10.191 14.0731C9.97967 13.8618 9.69302 13.7431 9.39412 13.7431C9.09523 13.7431 8.80858 13.8618 8.59723 14.0731C8.38588 14.2845 8.26714 14.5711 8.26714 14.87C8.26714 15.018 8.29629 15.1646 8.35293 15.3013C8.40956 15.438 8.49258 15.5623 8.59723 15.6669L10.0543 17.1239H8.26717C7.17125 17.1239 6.12022 16.6886 5.34529 15.9137C4.57036 15.1387 4.13501 14.0877 4.13501 12.9918C4.13501 11.8959 4.57036 10.8448 5.34529 10.0699C6.12022 9.29497 7.17125 8.85962 8.26717 8.85962C8.56606 8.85962 8.8527 8.74089 9.06405 8.52954C9.27539 8.3182 9.39412 8.03155 9.39412 7.73267C9.39412 7.43378 9.27539 7.14713 9.06405 6.93579C8.8527 6.72444 8.56606 6.60571 8.26717 6.60571C4.74591 6.60571 1.8811 9.47047 1.8811 12.9918C1.8811 16.5131 4.74591 19.3778 8.26717 19.3778H10.0543L8.59723 20.8349C8.38588 21.0462 8.26714 21.3329 8.26714 21.6318C8.26714 21.9306 8.38588 22.2173 8.59723 22.4287C8.80858 22.64 9.09523 22.7587 9.39412 22.7587C9.69302 22.7587 9.97967 22.64 10.191 22.4287L13.5719 19.0478C13.6765 18.9431 13.7595 18.8189 13.8162 18.6822C13.8728 18.5454 13.902 18.3989 13.902 18.2509C13.902 18.1029 13.8728 17.9563 13.8162 17.8196C13.7595 17.6829 13.6765 17.5586 13.5719 17.454L10.191 14.0731Z" fill="#797979"/>
</g>
</g>
</svg>
