<svg width="25" height="25" viewBox="0 0 25 25" fill="none" xmlns="http://www.w3.org/2000/svg">
<g id="loupe (6) 1" clip-path="url(#clip0_2050_3071)">
<g id="Group">
<g id="Group_2">
<path id="Vector" d="M10.9187 0.555054C5.08098 0.555054 0.331299 5.30474 0.331299 11.1425C0.331299 16.9806 5.08098 21.7299 10.9187 21.7299C16.7568 21.7299 21.5062 16.9806 21.5062 11.1425C21.5062 5.30474 16.7568 0.555054 10.9187 0.555054ZM10.9187 19.7754C6.15863 19.7754 2.28591 15.9027 2.28591 11.1425C2.28591 6.38243 6.15863 2.50966 10.9187 2.50966C15.6789 2.50966 19.5516 6.38239 19.5516 11.1425C19.5516 15.9026 15.6789 19.7754 10.9187 19.7754Z" fill="#B5B5B5"/>
</g>
</g>
<g id="Group_3">
<g id="Group_4">
<path id="Vector_2" d="M24.0862 22.9285L18.483 17.3253C18.1012 16.9435 17.4829 16.9435 17.1011 17.3253C16.7192 17.7068 16.7192 18.3257 17.1011 18.7072L22.7043 24.3104C22.8952 24.5013 23.1451 24.5968 23.3953 24.5968C23.6451 24.5968 23.8953 24.5013 24.0862 24.3104C24.468 23.929 24.468 23.31 24.0862 22.9285Z" fill="#B5B5B5"/>
</g>
</g>
</g>
<defs>
<clipPath id="clip0_2050_3071">
<rect width="24.0417" height="24.0417" fill="white" transform="translate(0.331299 0.555054)"/>
</clipPath>
</defs>
</svg>
