<svg width="19" height="19" viewBox="0 0 19 19" fill="none" xmlns="http://www.w3.org/2000/svg">
<g id="shuffle 1" clip-path="url(#clip0_2010_2044)">
<path id="Vector" d="M6.92978 7.13898L7.76504 8.8095L8.60509 7.1295L8.27376 6.46685C7.96366 5.84137 7.48451 5.3153 6.89065 4.94828C6.29679 4.58126 5.61197 4.38797 4.91385 4.39034H0.760742V5.89295H4.91385C5.33273 5.89153 5.74364 6.00751 6.09995 6.22775C6.45627 6.44799 6.74375 6.76367 6.92978 7.13898Z" fill="#8C8C8C"/>
<path id="Vector_2" d="M16.3176 11.3721L15.2551 12.4347L16.2264 13.406H13.1358C12.7169 13.4074 12.306 13.2914 11.9497 13.0712C11.5934 12.8509 11.3059 12.5353 11.1199 12.16L10.2846 10.4894L9.44458 12.1694L9.7759 12.8321C10.086 13.4576 10.5652 13.9836 11.159 14.3507C11.7529 14.7177 12.4377 14.911 13.1358 14.9086H16.2264L15.2551 15.8799L16.3176 16.9425L18.5715 14.6886C18.6413 14.6188 18.6966 14.536 18.7344 14.4448C18.7721 14.3537 18.7916 14.256 18.7916 14.1573C18.7916 14.0586 18.7721 13.9609 18.7344 13.8698C18.6966 13.7786 18.6413 13.6958 18.5715 13.626L16.3176 11.3721Z" fill="#8C8C8C"/>
<path id="Vector_3" d="M18.572 4.61053L16.318 2.35663L15.2555 3.41916L16.2269 4.3905H13.1363C12.4382 4.38813 11.7533 4.58141 11.1595 4.94843C10.5656 5.31545 10.0865 5.84153 9.77637 6.467L6.92978 12.1601C6.74375 12.5354 6.45627 12.8511 6.09995 13.0713C5.74364 13.2916 5.33273 13.4075 4.91385 13.4061H0.760742V14.9087H4.91385C5.61197 14.9111 6.29679 14.7178 6.89065 14.3508C7.48451 13.9838 7.96366 13.4577 8.27376 12.8322L11.1204 7.13914C11.3064 6.76382 11.5939 6.44814 11.9502 6.22791C12.3065 6.00767 12.7174 5.89168 13.1363 5.8931H16.2269L15.2555 6.86444L16.318 7.92697L18.572 5.67306C18.6417 5.6033 18.6971 5.52047 18.7348 5.42932C18.7726 5.33816 18.792 5.24046 18.792 5.1418C18.792 5.04313 18.7726 4.94543 18.7348 4.85428C18.6971 4.76312 18.6417 4.6803 18.572 4.61053V4.61053Z" fill="#8C8C8C"/>
</g>
<defs>
<clipPath id="clip0_2010_2044">
<rect width="18.0312" height="18.0312" fill="white" transform="translate(0.760742 0.633911)"/>
</clipPath>
</defs>
</svg>
