<svg width="30" height="26" viewBox="0 0 30 26" fill="none" xmlns="http://www.w3.org/2000/svg">
<g id="smartphone 1" clip-path="url(#clip0_2010_2053)">
<g id="Group">
<g id="Group_2">
<path id="Vector" d="M22.3855 0.669189H9.08296C8.09216 0.669189 7.28613 1.3744 7.28613 2.24093V3.27788H24.1818V2.24093C24.1818 1.3744 23.3759 0.669189 22.3855 0.669189ZM18.2188 2.67569H13.2498C12.9755 2.67569 12.7529 2.48091 12.7529 2.24093C12.7529 2.00095 12.9755 1.80616 13.2498 1.80616H18.2188C18.4931 1.80616 18.7157 2.00095 18.7157 2.24093C18.7157 2.48091 18.4931 2.67569 18.2188 2.67569Z" fill="#276ED8"/>
</g>
</g>
<g id="Group_3">
<g id="Group_4">
<path id="Vector_2" d="M16.0819 22.7525H14.8818C14.6797 22.7525 14.5149 22.894 14.5149 23.0685V23.2696C14.5149 23.4436 14.6792 23.5851 14.8818 23.5851H16.0819C16.2839 23.5851 16.4482 23.4436 16.4482 23.2696V23.0685C16.4487 22.894 16.2839 22.7525 16.0819 22.7525Z" fill="#276ED8"/>
</g>
</g>
<g id="Group_5">
<g id="Group_6">
<path id="Vector_3" d="M24.1815 3.93005H7.28589V20.6692H24.1815V3.93005Z" fill="#276ED8"/>
<path id="Vector_4" d="M19.4092 12.9726L20.6512 12.7712V11.8113L19.4092 11.6267C19.3138 11.2323 19.1328 10.8631 18.8836 10.5358L19.5961 9.63464L18.8077 8.95497L17.7778 9.58261C17.3982 9.3678 16.9719 9.21341 16.5125 9.13118L16.2789 8.06049H15.1654L14.9512 9.13118C14.4937 9.21341 14.0655 9.36948 13.6859 9.58429L12.6424 8.97007L11.854 9.64974L12.5821 10.5375C12.3329 10.8648 12.1538 11.234 12.0584 11.6283L10.8164 11.8297V12.7897L12.0584 12.9743C12.1538 13.3703 12.3348 13.7378 12.584 14.0651L11.8715 14.9646L12.6599 15.6443L13.6917 15.0166C14.0713 15.2314 14.4996 15.3875 14.9571 15.4681L15.1907 16.5387H16.3042L16.5183 15.4681C16.9777 15.3858 17.4041 15.2298 17.7837 15.0149L18.8271 15.6292L19.6155 14.9495L18.8875 14.0617C19.1347 13.7362 19.3138 13.3686 19.4092 12.9726ZM15.7338 14.2883C14.4606 14.2883 13.4289 13.3972 13.4289 12.3013C13.4289 11.2054 14.4606 10.3143 15.7338 10.3143C17.0069 10.3143 18.0387 11.2038 18.0387 12.3013C18.0387 13.3988 17.0069 14.2883 15.7338 14.2883Z" fill="#66D6A0"/>
</g>
</g>
<g id="Group_7">
<g id="Group_8">
<path id="Vector_5" d="M7.28589 21.5388V24.176C7.28589 24.9992 8.09188 25.6692 9.08224 25.6692H22.3852C23.3755 25.6692 24.1815 24.9992 24.1815 24.176V21.5388H7.28589Z" fill="#276ED8"/>
</g>
</g>
</g>
<defs>
<clipPath id="clip0_2010_2053">
<rect width="29" height="25" fill="white" transform="translate(0.981689 0.669189)"/>
</clipPath>
</defs>
</svg>
