<svg width="27" height="27" viewBox="0 0 27 27" fill="none" xmlns="http://www.w3.org/2000/svg">
<path d="M13.8834 6.85108C10.2251 6.85108 7.27426 9.80188 7.27426 13.4602C7.27426 17.1185 10.2251 20.0693 13.8834 20.0693C17.5417 20.0693 20.4925 17.1185 20.4925 13.4602C20.4925 9.80188 17.5417 6.85108 13.8834 6.85108ZM13.8834 17.757C11.5193 17.757 9.58658 15.83 9.58658 13.4602C9.58658 11.0903 11.5135 9.16341 13.8834 9.16341C16.2532 9.16341 18.1801 11.0903 18.1801 13.4602C18.1801 15.83 16.2474 17.757 13.8834 17.757ZM22.3043 6.58074C22.3043 7.43779 21.6141 8.12229 20.7628 8.12229C19.9057 8.12229 19.2213 7.43204 19.2213 6.58074C19.2213 5.72944 19.9115 5.03919 20.7628 5.03919C21.6141 5.03919 22.3043 5.72944 22.3043 6.58074ZM26.6817 8.14529C26.5839 6.08031 26.1122 4.25116 24.5994 2.74412C23.0924 1.23709 21.2632 0.765421 19.1982 0.661884C17.07 0.541091 10.691 0.541091 8.56271 0.661884C6.50348 0.759669 4.67433 1.23134 3.16154 2.73837C1.64876 4.24541 1.18284 6.07456 1.0793 8.13954C0.95851 10.2678 0.95851 16.6468 1.0793 18.7751C1.17709 20.8401 1.64876 22.6692 3.16154 24.1762C4.67433 25.6833 6.49773 26.1549 8.56271 26.2585C10.691 26.3793 17.07 26.3793 19.1982 26.2585C21.2632 26.1607 23.0924 25.689 24.5994 24.1762C26.1065 22.6692 26.5781 20.8401 26.6817 18.7751C26.8024 16.6468 26.8024 10.2736 26.6817 8.14529ZM23.9322 21.0586C23.4835 22.186 22.615 23.0546 21.4818 23.509C19.785 24.182 15.7585 24.0267 13.8834 24.0267C12.0082 24.0267 7.97601 24.1762 6.2849 23.509C5.1575 23.0603 4.28894 22.1918 3.83453 21.0586C3.16154 19.3618 3.31685 15.3354 3.31685 13.4602C3.31685 11.585 3.1673 7.55283 3.83453 5.86173C4.28319 4.73433 5.15175 3.86577 6.2849 3.41136C7.98176 2.73837 12.0082 2.89368 13.8834 2.89368C15.7585 2.89368 19.7907 2.74412 21.4818 3.41136C22.6092 3.86002 23.4778 4.72858 23.9322 5.86173C24.6052 7.55859 24.4499 11.585 24.4499 13.4602C24.4499 15.3354 24.6052 19.3675 23.9322 21.0586Z" fill="#000"/>
</svg>
