<svg width="27" height="23" viewBox="0 0 27 23" fill="none" xmlns="http://www.w3.org/2000/svg">
<path d="M0.733876 11.2816L6.67359 13.4985L8.97263 20.8922C9.11973 21.3657 9.69879 21.5408 10.0831 21.2265L13.394 18.5274C13.7411 18.2447 14.2354 18.2306 14.5981 18.4938L20.5698 22.8294C20.981 23.1283 21.5634 22.903 21.6666 22.4061L26.0411 1.36364C26.1537 0.820936 25.6204 0.368192 25.1037 0.568056L0.726916 9.97188C0.125349 10.2039 0.13059 11.0556 0.733876 11.2816ZM8.60212 12.3184L20.2105 5.16879C20.4192 5.04067 20.6338 5.32277 20.4547 5.48895L10.8743 14.3943C10.5376 14.7078 10.3204 15.1273 10.2589 15.5826L9.93251 18.0011C9.88929 18.324 9.43568 18.356 9.34658 18.0435L8.09146 13.6334C7.9477 13.1303 8.15719 12.593 8.60212 12.3184Z" fill="#000"/>
</svg>
